<svg width="261" height="233" viewBox="0 0 261 233" fill="none" xmlns="http://www.w3.org/2000/svg">
<path d="M32.0208 232.438V202.896H23.1667L16 221.313L8.8125 202.896H0V232.438H6.29167V211.188L14.625 232.438H17.375L25.6875 211.188V232.438H32.0208Z" fill="#F89400"/>
<path d="M36.3571 221.73C36.3571 228.584 41.2737 232.98 47.7946 232.98C51.1071 232.98 54.4196 232 56.6071 230L54.1279 226.375C52.7529 227.709 50.3987 228.5 48.3987 228.5C44.7737 228.5 42.6071 226.23 42.2529 223.542H58.1487V222.292C58.1487 215.292 53.8154 210.521 47.4404 210.521C40.9196 210.521 36.3571 215.521 36.3571 221.73ZM47.4404 214.98C51.1487 214.98 52.5654 217.688 52.7112 219.73H42.1696C42.4196 217.605 43.9404 214.98 47.4404 214.98Z" fill="#F89400"/>
<path d="M60.8424 219.5C60.8424 227.709 65.0091 232.98 72.1341 232.98C79.2591 232.98 83.4257 227.834 83.4257 221.813C83.4257 216.188 79.3216 211.667 73.3424 211.667C70.2382 211.667 66.8632 212.959 64.9674 215.73C65.7174 211.667 68.6757 209.188 74.9257 208.209L80.7382 207.271V202.146L74.4466 203.125C64.4674 204.667 60.8424 210.334 60.8424 219.5ZM77.6341 221.625C77.6341 225.084 75.6341 227.959 72.1341 227.959C68.6341 227.959 66.6966 225.084 66.6966 221.625C66.6966 218.396 68.6341 215.521 72.1341 215.521C75.6341 215.521 77.6341 218.396 77.6341 221.625Z" fill="#F89400"/>
<path d="M86.2576 221.73C86.2576 228.584 91.1742 232.98 97.6951 232.98C101.008 232.98 104.32 232 106.508 230L104.028 226.375C102.653 227.709 100.299 228.5 98.2992 228.5C94.6742 228.5 92.5076 226.23 92.1534 223.542H108.049V222.292C108.049 215.292 103.716 210.521 97.3409 210.521C90.8201 210.521 86.2576 215.521 86.2576 221.73ZM97.3409 214.98C101.049 214.98 102.466 217.688 102.612 219.73H92.0701C92.3201 217.605 93.8409 214.98 97.3409 214.98Z" fill="#F89400"/>
<path d="M110.118 232.979C115.576 232.979 118.764 229.521 119.597 217.459L119.743 215.959H126.597V232.438H132.222V211.042H114.951L114.597 216.104C113.847 225.563 112.16 227.521 110.118 227.521V232.979Z" fill="#F89400"/>
<path d="M143.195 232.438L152.278 218.75V232.438H157.903V211.042H152.236L143.424 224.25V211.042H137.799V232.438H143.195Z" fill="#F89400"/>
<path d="M190.981 232.438C196.606 232.438 199.565 228.896 199.565 224.459C199.565 220.75 197.044 217.688 193.898 217.209C196.69 216.625 199.002 214.146 199.002 210.417C199.002 206.48 196.127 202.896 190.502 202.896H174.94V232.438H190.981ZM181.231 208.25H189.127C191.252 208.25 192.565 209.667 192.565 211.48C192.565 213.396 191.252 214.771 189.127 214.771H181.231V208.25ZM181.231 220.125H189.335C191.815 220.125 193.148 221.73 193.148 223.584C193.148 225.709 191.731 227.084 189.335 227.084H181.231V220.125Z" fill="#F89400"/>
<path d="M222.629 232.438V218.625C222.629 212.459 218.17 210.521 213.295 210.521C209.92 210.521 206.566 211.584 203.941 213.875L206.066 217.646C207.9 215.959 210.025 215.125 212.316 215.125C215.15 215.125 217.004 216.542 217.004 218.709V221.667C215.587 219.938 213.066 219.063 210.233 219.063C206.816 219.063 202.795 220.875 202.795 225.875C202.795 230.667 206.816 232.98 210.233 232.98C213.025 232.98 215.545 231.959 217.004 230.23V232.438H222.629ZM217.004 227.292C216.087 228.542 214.316 229.167 212.504 229.167C210.275 229.167 208.462 228 208.462 226.021C208.462 223.98 210.275 222.792 212.504 222.792C214.316 222.792 216.087 223.396 217.004 224.646V227.292Z" fill="#F89400"/>
<path d="M260.359 232.438V202.896H251.505L244.338 221.313L237.151 202.896H228.338V232.438H234.63V211.188L242.963 232.438H245.713L254.026 211.188V232.438H260.359Z" fill="#F89400"/>
<mask id="mask0_28_230" style="mask-type:luminance" maskUnits="userSpaceOnUse" x="30" y="64" width="35" height="126">
<path d="M30.9235 64.7761H64.1943V189.505H30.9235V64.7761Z" fill="white"/>
</mask>
<g mask="url(#mask0_28_230)">
<path d="M63.9808 68.9637V182.557C63.9808 186.386 60.8662 189.485 57.0224 189.485H37.8766C34.0329 189.485 30.9183 186.386 30.9183 182.557V95.422C30.9183 93.5366 31.6891 91.7293 33.0537 90.422L58.0901 66.4689C59.4756 65.1408 61.6787 65.1824 63.012 66.5626C63.6318 67.2085 63.9808 68.0679 63.9808 68.9637Z" fill="#FF6E5D"/>
</g>
<mask id="mask1_28_230" style="mask-type:luminance" maskUnits="userSpaceOnUse" x="78" y="136" width="107" height="54">
<path d="M78.861 136.776H184.194V189.505H78.861V136.776Z" fill="white"/>
</mask>
<g mask="url(#mask1_28_230)">
<path d="M183.627 144.01V182.557C183.627 186.385 180.512 189.484 176.668 189.484H86.6058C82.7621 189.484 79.6423 186.385 79.6423 182.557V144.01C79.6423 140.182 82.7621 137.078 86.6058 137.078H176.668C180.512 137.078 183.627 140.182 183.627 144.01Z" fill="#01244D"/>
</g>
<mask id="mask2_28_230" style="mask-type:luminance" maskUnits="userSpaceOnUse" x="198" y="136" width="32" height="54">
<path d="M198.861 136.776H229.96V189.505H198.861V136.776Z" fill="white"/>
</mask>
<g mask="url(#mask2_28_230)">
<path d="M229.95 144.005L229.955 182.557C229.955 186.313 226.955 189.37 223.21 189.484L222.991 189.49C222.991 189.49 222.991 189.49 222.991 189.484H206.252C202.408 189.484 199.293 186.38 199.293 182.557V144.01C199.293 140.182 202.408 137.078 206.252 137.078H222.986C226.83 137.078 229.944 140.182 229.95 144.005Z" fill="#5FBB40"/>
</g>
<mask id="mask3_28_230" style="mask-type:luminance" maskUnits="userSpaceOnUse" x="161" y="32" width="69" height="91">
<path d="M161.528 32.7761H229.96V122.109H161.528V32.7761Z" fill="white"/>
</mask>
<g mask="url(#mask3_28_230)">
<path d="M229.939 95.4531L229.944 114.552C229.944 118.307 226.944 121.365 223.2 121.479L222.981 121.484H169.273C165.429 121.484 162.309 118.38 162.309 114.552V36.8542C162.309 34.9375 163.866 33.3906 165.788 33.3906C166.679 33.3906 167.533 33.7292 168.179 34.3333L227.762 90.4167C229.153 91.7292 229.939 93.5469 229.939 95.4531Z" fill="#F89400"/>
</g>
<mask id="mask4_28_230" style="mask-type:luminance" maskUnits="userSpaceOnUse" x="78" y="0" width="69" height="123">
<path d="M78.861 0H146.861V122.109H78.861V0Z" fill="white"/>
</mask>
<g mask="url(#mask4_28_230)">
<path d="M134.434 2.56761L144.465 12.0155C145.856 13.3228 146.647 15.1457 146.647 17.052V114.552C146.647 118.38 143.528 121.484 139.684 121.484H86.6058C82.7621 121.484 79.6423 118.38 79.6423 114.552V48.7916C79.6423 46.9061 80.4183 45.1041 81.7829 43.7968L124.83 2.60927C127.507 0.0467726 131.736 0.0311473 134.434 2.56761Z" fill="#00C1F6"/>
</g>
</svg>
